# xmcd CD database file
#
# Track frame offsets:
#	150
#	22658
#	40738
#	59838
#
# Disc length: 1095 seconds
#
# Revision: 0
# Processed by: cddbd v1.5.1PL0 Copyright (c) Steve Scherf et al.
# Submitted via: CDex 1.51
#
DISCID=2a044504
DTITLE=ハレンチ★パンチ - 白線〜スタートライン
DYEAR=2005
DGENRE=JPop
TTITLE0=白線〜スタートライン
TTITLE1=ジュエル
TTITLE2=ワカチアイタイ奇跡
TTITLE3=白線〜スタートライン -instrumental-
EXTD=YEAR: 2005
EXTT0=
EXTT1=
EXTT2=
EXTT3=
PLAYORDER=
